<?xml version="1.0" encoding="UTF-8"?>
<svg id="Layer_2" data-name="Layer 2" xmlns="http://www.w3.org/2000/svg" viewBox="0 0 183.04 249.5">
  <defs>
    <style>
      .cls-1 {
        fill: #0042de;
      }
    </style>
  </defs>
  <g id="OBJECTS">
    <g>
      <g>
        <g>
          <g>
            <path class="cls-1" d="M92.73,248.81c-7.48,0-15.78-1.87-15.87-1.89l-.12-.04c-22.71-9.31-46.04-36.57-46.27-36.85-15.33-20.82-25.6-46.39-25.6-63.66,0-8.34-.49-16-1.01-24.1-.61-9.53-1.24-19.38-1.24-31.98,0-2.25-.02-4.45-.04-6.6-.19-20.61-.34-36.88,17.43-56.71C39.45,5.33,88.02,2.55,90.08,2.44h3.33s0,1.5,0,1.5h-3.29c-.46.03-49.97,2.85-68.98,24.05C3.76,47.38,3.91,63.4,4.09,83.68c.02,2.16.04,4.36.04,6.61,0,12.55.63,22.38,1.23,31.88.52,8.13,1.01,15.81,1.01,24.19,0,16.98,10.16,42.19,25.28,62.73.2.23,23.25,27.17,45.6,36.36.76.17,8.5,1.84,15.48,1.84v1.5Z"/>
            <path class="cls-1" d="M54.01,113.14l-.21-.07-26.82-8.87,25.76-10.22,28.48,12.21-27.21,6.96ZM31.37,104.07l22.69,7.51,22.51-5.75-23.85-10.22-21.35,8.47Z"/>
            <polygon class="cls-1" points="92.03 182.64 66.19 182.64 66.19 170.99 78.2 163.86 81.92 130.51 90.73 117.89 91.96 118.75 83.37 131.06 79.61 164.77 67.69 171.85 67.69 181.14 92.03 181.14 92.03 182.64"/>
            <polygon class="cls-1" points="92.4 217.78 76.3 217.78 59.2 208.31 84.89 198.28 92.32 201.39 91.74 202.77 84.87 199.89 62.72 208.55 76.69 216.28 92.4 216.28 92.4 217.78"/>
            <polygon class="cls-1" points="82.82 131.23 78.13 105.96 78.18 105.78 89.98 66.46 58.2 10.14 38.58 66.38 37.16 65.89 57.87 6.51 91.6 66.28 79.67 106.04 84.29 130.96 82.82 131.23"/>
            <polygon class="cls-1" points="4.27 100.98 2.8 100.67 18.56 27.28 52.68 93.06 76 41.05 77.36 41.67 52.78 96.51 19.15 31.68 4.27 100.98"/>
            <polygon class="cls-1" points="29.12 104.88 1.67 102.5 37.46 65.5 76.07 40.86 91.07 3.03 92.46 3.58 77.29 41.86 77.08 41.99 38.35 66.72 4.94 101.27 29.25 103.38 29.12 104.88"/>
            <path class="cls-1" d="M67.9,172.33l-61.48-9.27,48.05-52.28,13.44,61.54ZM9.43,162l56.54,8.52-12.36-56.59-44.18,48.07Z"/>
            <path class="cls-1" d="M29.99,211.93l38.11-32-5.86,28.65-1.3-.27.08.86-31.03,2.76ZM65.77,183.85l-31.17,26.17,26.29-2.33v.02s4.88-23.85,4.88-23.85Z"/>
            <path class="cls-1" d="M76.67,247.29l-16.28-39.61h32.01v1.5h-29.77l13.58,33.03-.47-25.17,1.5-.03.56,30.04c.01.65-.88.83-1.13.23Z"/>
          </g>
          <g>
            <path class="cls-1" d="M90.79,248.81v-1.5c6.98,0,14.72-1.67,15.48-1.84,22.36-9.19,45.41-36.13,45.64-36.4,15.09-20.5,25.24-45.71,25.24-62.69,0-8.39.49-16.07,1.01-24.19.61-9.5,1.23-19.33,1.23-31.88,0-2.26.02-4.46.04-6.62.19-20.28.34-36.3-17.05-55.69C143.38,6.79,93.87,3.97,93.37,3.94l.08-1.5c2.06.11,50.63,2.88,70.05,24.55,17.77,19.82,17.62,36.1,17.43,56.7-.02,2.15-.04,4.35-.04,6.6,0,12.6-.63,22.45-1.24,31.98-.52,8.1-1.01,15.76-1.01,24.1,0,17.27-10.28,42.84-25.57,63.62-.27.32-23.59,27.58-46.3,36.89l-.12.04c-.08.02-8.39,1.89-15.87,1.89Z"/>
            <path class="cls-1" d="M129.51,113.14l-27.21-6.96,28.48-12.21,25.76,10.22-27.03,8.94ZM106.95,105.82l22.51,5.75,22.69-7.51-21.35-8.47-23.85,10.22Z"/>
            <polygon class="cls-1" points="117.34 182.64 91.5 182.64 91.5 181.14 115.84 181.14 115.84 171.85 103.92 164.77 100.16 131.06 91.56 118.75 92.79 117.89 101.61 130.51 101.63 130.7 105.33 163.86 117.34 170.99 117.34 182.64"/>
            <polygon class="cls-1" points="107.23 217.78 91.12 217.78 91.12 216.28 106.84 216.28 120.81 208.55 98.65 199.89 91.79 202.77 91.21 201.39 98.63 198.28 124.33 208.31 107.23 217.78"/>
            <polygon class="cls-1" points="101.63 130.9 100.14 130.67 103.86 106.05 91.92 66.28 92.08 66 125.71 6.4 142.9 65.93 141.46 66.34 125.26 10.25 93.54 66.46 105.39 105.94 101.63 130.9"/>
            <polygon class="cls-1" points="177.68 102.58 164.34 31.75 131.46 95.13 130.13 94.44 165.01 27.21 179.16 102.3 177.68 102.58"/>
            <polygon class="cls-1" points="154.41 104.88 154.28 103.38 178.58 101.27 145.18 66.72 106.24 41.86 106.15 41.64 91.07 3.58 92.46 3.03 107.45 40.86 146.2 65.61 181.85 102.5 154.41 104.88"/>
            <path class="cls-1" d="M115.62,172.33l13.44-61.54,48.05,52.28-61.48,9.27ZM129.91,113.93l-12.36,56.59,56.54-8.52-44.18-48.07Z"/>
            <path class="cls-1" d="M153.53,211.93l-31.52-2.75h-30.89v-1.5h29.97l-5.68-27.75,38.11,32ZM122.63,207.68l26.29,2.33-31.17-26.17,4.88,23.86v-.03Z"/>
            <path class="cls-1" d="M105.75,246l.54-28.99,1.5.03-.47,25.17,14-34.07,1.39.57-15.46,37.6c-.33.8-1.52.55-1.51-.31Z"/>
          </g>
        </g>
        <g>
          <path class="cls-1" d="M61.34,8.32c0-1.83-1.48-3.31-3.31-3.31s-3.3,1.48-3.3,3.31,1.48,3.31,3.3,3.31,3.31-1.48,3.31-3.31Z"/>
          <path class="cls-1" d="M18.85,26.17c-1.82,0-3.31,1.48-3.31,3.31s1.48,3.31,3.31,3.31,3.31-1.48,3.31-3.31-1.48-3.31-3.31-3.31Z"/>
          <path class="cls-1" d="M76.68,44.67c1.83,0,3.31-1.48,3.31-3.31s-1.48-3.31-3.31-3.31-3.31,1.48-3.31,3.31,1.48,3.31,3.31,3.31Z"/>
          <path class="cls-1" d="M37.55,62.83c-1.83,0-3.31,1.48-3.31,3.31s1.48,3.31,3.31,3.31,3.31-1.48,3.31-3.31-1.48-3.31-3.31-3.31Z"/>
          <path class="cls-1" d="M6.61,101.64c0-1.83-1.48-3.31-3.31-3.31s-3.31,1.48-3.31,3.31,1.48,3.31,3.31,3.31,3.31-1.48,3.31-3.31Z"/>
          <path class="cls-1" d="M56.04,94.1c0-1.83-1.48-3.31-3.31-3.31s-3.31,1.48-3.31,3.31,1.48,3.31,3.31,3.31,3.31-1.48,3.31-3.31Z"/>
          <path class="cls-1" d="M33.5,104.13c0-1.83-1.48-3.31-3.31-3.31s-3.31,1.48-3.31,3.31,1.48,3.31,3.31,3.31,3.31-1.48,3.31-3.31Z"/>
          <path class="cls-1" d="M54.04,109.05c-1.82,0-3.31,1.48-3.31,3.31s1.48,3.31,3.31,3.31,3.31-1.48,3.31-3.31-1.48-3.31-3.31-3.31Z"/>
          <path class="cls-1" d="M75.29,105.75c0,1.83,1.48,3.31,3.31,3.31s3.31-1.48,3.31-3.31-1.48-3.31-3.31-3.31-3.31,1.48-3.31,3.31Z"/>
          <path class="cls-1" d="M79.48,130.78c0,1.83,1.48,3.31,3.31,3.31s3.31-1.48,3.31-3.31-1.48-3.31-3.31-3.31-3.31,1.48-3.31,3.31Z"/>
          <path class="cls-1" d="M66.94,168.12c-1.83,0-3.31,1.48-3.31,3.31s1.48,3.31,3.31,3.31,3.31-1.48,3.31-3.31-1.48-3.31-3.31-3.31Z"/>
          <path class="cls-1" d="M78.98,160.27c-1.82,0-3.31,1.48-3.31,3.31s1.48,3.31,3.31,3.31,3.31-1.48,3.31-3.31-1.48-3.31-3.31-3.31Z"/>
          <path class="cls-1" d="M7.93,159.22c-1.83,0-3.31,1.48-3.31,3.31s1.48,3.31,3.31,3.31,3.31-1.48,3.31-3.31-1.48-3.31-3.31-3.31Z"/>
          <path class="cls-1" d="M31.54,207.67c-1.83,0-3.31,1.48-3.31,3.31s1.48,3.31,3.31,3.31,3.31-1.48,3.31-3.31-1.48-3.31-3.31-3.31Z"/>
          <path class="cls-1" d="M62.31,205.13c-1.82,0-3.31,1.48-3.31,3.31s1.48,3.31,3.31,3.31,3.31-1.48,3.31-3.31-1.48-3.31-3.31-3.31Z"/>
          <path class="cls-1" d="M84.71,195.78c-1.83,0-3.31,1.48-3.31,3.31s1.48,3.31,3.31,3.31,3.31-1.48,3.31-3.31-1.48-3.31-3.31-3.31Z"/>
          <path class="cls-1" d="M75.68,220.34c1.83,0,3.31-1.48,3.31-3.31s-1.48-3.31-3.31-3.31-3.31,1.48-3.31,3.31,1.48,3.31,3.31,3.31Z"/>
          <path class="cls-1" d="M76.49,242.88c-1.83,0-3.31,1.48-3.31,3.31s1.48,3.31,3.31,3.31,3.31-1.48,3.31-3.31-1.48-3.31-3.31-3.31Z"/>
          <path class="cls-1" d="M91.28,6.61c.08,0,.16-.02.24-.02.08,0,.16.02.24.02,1.83,0,3.31-1.48,3.31-3.31s-1.48-3.31-3.31-3.31c-.08,0-.16.02-.24.02-.08,0-.16-.02-.24-.02-1.83,0-3.31,1.48-3.31,3.31s1.48,3.31,3.31,3.31Z"/>
          <path class="cls-1" d="M128.31,8.32c0-1.83-1.48-3.31-3.31-3.31s-3.31,1.48-3.31,3.31,1.48,3.31,3.31,3.31,3.31-1.48,3.31-3.31Z"/>
          <path class="cls-1" d="M91.28,69.44c.08,0,.16-.02.24-.02.08,0,.16.02.24.02,1.83,0,3.31-1.48,3.31-3.31s-1.48-3.31-3.31-3.31c-.08,0-.16.02-.24.02-.08,0-.16-.02-.24-.02-1.83,0-3.31,1.48-3.31,3.31s1.48,3.31,3.31,3.31Z"/>
          <path class="cls-1" d="M164.19,26.17c-1.83,0-3.31,1.48-3.31,3.31s1.48,3.31,3.31,3.31,3.31-1.48,3.31-3.31-1.48-3.31-3.31-3.31Z"/>
          <path class="cls-1" d="M106.36,44.67c1.83,0,3.31-1.48,3.31-3.31s-1.48-3.31-3.31-3.31-3.31,1.48-3.31,3.31,1.48,3.31,3.31,3.31Z"/>
          <path class="cls-1" d="M145.49,62.83c-1.83,0-3.31,1.48-3.31,3.31s1.48,3.31,3.31,3.31,3.31-1.48,3.31-3.31-1.48-3.31-3.31-3.31Z"/>
          <path class="cls-1" d="M179.73,98.34c-1.83,0-3.31,1.48-3.31,3.31s1.48,3.31,3.31,3.31,3.3-1.48,3.3-3.31-1.48-3.31-3.3-3.31Z"/>
          <path class="cls-1" d="M130.31,90.79c-1.83,0-3.31,1.48-3.31,3.31s1.48,3.31,3.31,3.31,3.31-1.48,3.31-3.31-1.48-3.31-3.31-3.31Z"/>
          <path class="cls-1" d="M152.85,100.82c-1.83,0-3.31,1.48-3.31,3.31s1.48,3.31,3.31,3.31,3.31-1.48,3.31-3.31-1.48-3.31-3.31-3.31Z"/>
          <path class="cls-1" d="M129,109.05c-1.83,0-3.31,1.48-3.31,3.31s1.48,3.31,3.31,3.31,3.31-1.48,3.31-3.31-1.48-3.31-3.31-3.31Z"/>
          <path class="cls-1" d="M104.45,109.05c1.82,0,3.3-1.48,3.3-3.31s-1.48-3.31-3.3-3.31-3.31,1.48-3.31,3.31,1.48,3.31,3.31,3.31Z"/>
          <path class="cls-1" d="M91.54,115.02s-.01,0-.02,0c0,0-.01,0-.02,0-1.83,0-3.31,1.48-3.31,3.31s1.48,3.31,3.31,3.31c0,0,.02,0,.02,0,0,0,.01,0,.02,0,1.83,0,3.31-1.48,3.31-3.31s-1.48-3.31-3.31-3.31Z"/>
          <path class="cls-1" d="M100.25,134.09c1.83,0,3.31-1.48,3.31-3.31s-1.48-3.31-3.31-3.31-3.31,1.48-3.31,3.31,1.48,3.31,3.31,3.31Z"/>
          <path class="cls-1" d="M119.41,171.42c0-1.83-1.48-3.31-3.31-3.31s-3.31,1.48-3.31,3.31,1.48,3.31,3.31,3.31,3.31-1.48,3.31-3.31Z"/>
          <path class="cls-1" d="M107.36,163.58c0-1.83-1.48-3.31-3.31-3.31s-3.31,1.48-3.31,3.31,1.48,3.31,3.31,3.31,3.31-1.48,3.31-3.31Z"/>
          <path class="cls-1" d="M175.11,159.22c-1.83,0-3.31,1.48-3.31,3.31s1.48,3.31,3.31,3.31,3.31-1.48,3.31-3.31-1.48-3.31-3.31-3.31Z"/>
          <path class="cls-1" d="M151.5,207.67c-1.83,0-3.31,1.48-3.31,3.31s1.48,3.31,3.31,3.31,3.31-1.48,3.31-3.31-1.48-3.31-3.31-3.31Z"/>
          <path class="cls-1" d="M120.73,205.13c-1.83,0-3.31,1.48-3.31,3.31s1.48,3.31,3.31,3.31,3.31-1.48,3.31-3.31-1.48-3.31-3.31-3.31Z"/>
          <path class="cls-1" d="M98.33,195.78c-1.83,0-3.31,1.48-3.31,3.31s1.48,3.31,3.31,3.31,3.31-1.48,3.31-3.31-1.48-3.31-3.31-3.31Z"/>
          <path class="cls-1" d="M107.36,213.72c-1.83,0-3.31,1.48-3.31,3.31s1.48,3.31,3.31,3.31,3.3-1.48,3.3-3.31-1.48-3.31-3.3-3.31Z"/>
          <path class="cls-1" d="M106.55,242.88c-1.83,0-3.31,1.48-3.31,3.31s1.48,3.31,3.31,3.31,3.31-1.48,3.31-3.31-1.48-3.31-3.31-3.31Z"/>
        </g>
      </g>
      <rect class="cls-1" x="34.37" y="89.76" width="1.5" height="95.58" transform="translate(-82.66 58.29) rotate(-41.74)"/>
      <rect class="cls-1" x="-8.96" y="161.72" width="101.14" height="1.5" transform="translate(-126.06 166.4) rotate(-76.98)"/>
      <rect class="cls-1" x="118.07" y="38.8" width="1.5" height="58.54" transform="translate(-17.45 54.56) rotate(-24.14)"/>
      <rect class="cls-1" x="139.61" y="111.17" width="1.5" height="100.99" transform="translate(-31.51 34.01) rotate(-12.43)"/>
      <rect class="cls-1" x="101.27" y="135.9" width="94.26" height="1.5" transform="translate(-52.58 154.05) rotate(-47.59)"/>
      <rect class="cls-1" x="75.16" y="178.06" width="1.5" height="24.85" transform="translate(-114.14 113.5) rotate(-46.22)"/>
      <rect class="cls-1" x="95.19" y="189.74" width="24.85" height="1.5" transform="translate(-101.89 127.43) rotate(-43.79)"/>
    </g>
  </g>
</svg>